<?xml version="1.0" encoding="UTF-8"?>
<svg xmlns="http://www.w3.org/2000/svg" viewBox="0 0 149.62 86.45">
  <defs>
    <style>
      .cls-1 {
        fill: #63adb7;
      }

      .cls-2 {
        fill: #f8b229;
      }

      .cls-3 {
        fill: #d67d12;
      }

      .cls-4 {
        fill: #ea493d;
      }

      .cls-5 {
        isolation: isolate;
      }

      .cls-6 {
        fill: #448b91;
      }

      .cls-7 {
        fill: #accce2;
        mix-blend-mode: multiply;
      }
    </style>
  </defs>
  <g class="cls-5">
    <g id="Layer_2" data-name="Layer 2">
      <g id="OBJECTS">
        <g>
          <g>
            <g>
              <g>
                <path class="cls-6" d="M144.56,51.59c.04,6.52.34,13.05,1.11,18.29-21.65,5.09-45.05,8.64-69.67,11.14h-.05c-1.78-6.34-3.07-12.67-3.65-19.02-.29-3.31-.4-6.63-.27-9.96.08-2.25.27-4.5.58-6.77.61-4.63,1.71-9.28,3.37-13.97l69.69-9.15s-.33,4.04-.64,10c-.14,2.94-.28,6.37-.38,10-.07,3.05-.12,6.25-.09,9.45Z"/>
                <path class="cls-1" d="M76.01,81.02h-.05c-5.68-.58-11.29-1.2-16.83-1.9h0c-2.61-.33-5.21-.67-7.78-1.02-15.69-2.17-30.76-4.86-45.06-8.22.77-5.24,1.07-11.78,1.11-18.29.02-2.39,0-4.77-.04-7.09-.07-3.55-.19-6.94-.32-9.96-.33-7.24-.75-12.39-.75-12.39l46.39,6.09,7.15.94,16.16,2.12c-.58,4.53-.97,9.23-1.18,14.06-.09,2.23-.15,4.46-.18,6.75-.04,3.26.01,6.58.13,9.96.19,6.15.62,12.47,1.25,18.95Z"/>
              </g>
              <path class="cls-7" d="M145.67,22.15s-.33,4.04-.64,10l-70.23,13.21c-.73-.02-1.46-.06-2.19-.09-26.39-1.31-55.39-8.15-65.58-10.73-.33-7.24-.75-12.39-.75-12.39l69.7,9.15,69.69-9.15Z"/>
            </g>
            <g>
              <path class="cls-1" d="M149.62,8l-72.83,17.56-16.85-3.85-7.04-1.61L0,8C28.88,6.15,55.44,3.77,76.01,0c12.14,2.57,27.27,4.45,44.25,5.92h.02c3.22.28,6.5.54,9.85.8,6.3.46,12.83.88,19.49,1.27Z"/>
              <path class="cls-1" d="M2.16,28.22s0-12.12-2.16-20.22c25.33,5.15,50.66,8.52,75.98,10.11l.02,21.69c-25.08-2.3-49.72-6.09-73.84-11.58Z"/>
              <path class="cls-6" d="M75.98,18.11l73.64-10.11c-1.26,6.08-1.7,12.57-1.53,19.35-21.65,2.56-46.12,7.01-72.08,12.45-1.59-7.1-1.59-14.33-.02-21.69Z"/>
            </g>
          </g>
          <g>
            <g>
              <path class="cls-4" d="M130.12,6.73l-70.12,10.15-.07,4.83-.11,7.47-.69,49.94c-2.61-.32-5.21-.66-7.78-1.01l1.33-49.87.21-8.14.11-3.91L120.25,5.92h.02c3.22.28,6.5.54,9.85.8Z"/>
              <path class="cls-4" d="M144.66,42.14c-.07,3.05-.12,6.25-.09,9.45-27.97,6.4-69.76,12.96-69.76,12.96L7.39,51.59c.02-2.39,0-4.77-.04-7.09l.04-.02c24.32,5.94,67.42,12.78,67.42,12.78,31.01-1.38,69.85-15.11,69.85-15.11Z"/>
            </g>
            <g>
              <path class="cls-2" d="M53.59,56.3c-8.83,6-15.93,14.52-20.23,24.29,2.42-1.03,4.73-2.32,7.15-3.36.24,2.62,1.05,5.27,2.15,7.66,2.8-9.15,6.93-17.54,11.95-25.69-.23-.92-.78-1.98-1.01-2.9Z"/>
              <path class="cls-2" d="M55.98,56.46c7.74,7.36,13.36,16.92,16.01,27.26-2.22-1.41-4.29-3.06-6.51-4.48-.66,2.54-1.89,5.03-3.36,7.2-1.27-9.48-3.99-18.43-7.6-27.29.38-.87,1.09-1.83,1.47-2.7Z"/>
              <g>
                <path class="cls-2" d="M54.53,59.18s-.03,0-.06,0c-.96.13-3.19-1.19-4.08-1.53-5.8-2.21-11.57-4.52-17.14-7.25-2.42-1.18-5-2.68-6.05-5.11-.09-.2-.17-.41-.23-.63-.81-2.71.69-5.79,3.11-7.25,2.42-1.47,5.53-1.47,8.19-.51,2.66.96,4.92,2.8,6.86,4.87,2.11,2.23,3.89,4.74,5.46,7.37,1.44,2.41,2.71,4.92,3.92,7.44.36.75,1.38,2.31.02,2.59Z"/>
                <path class="cls-3" d="M54.47,59.18c-.96.13-3.19-1.19-4.08-1.53-5.8-2.21-11.57-4.52-17.14-7.25-2.42-1.18-5-2.68-6.05-5.11.08-.52.25-1.01.56-1.43.72-.97,2.03-1.34,3.24-1.22,1.2.13,2.31.67,3.37,1.24,7.44,3.99,13.83,9.63,20.09,15.3Z"/>
              </g>
              <g>
                <path class="cls-2" d="M55.03,59.32s.04,0,.07,0c1.12-.02,3.43-1.91,4.39-2.45,6.24-3.53,12.42-7.16,18.31-11.24,2.56-1.77,5.25-3.93,6.02-6.88.07-.24.12-.5.15-.76.45-3.24-1.79-6.49-4.8-7.74-3.01-1.26-6.57-.73-9.44.83-2.87,1.56-5.13,4.05-6.98,6.74-2.02,2.91-3.62,6.08-4.96,9.35-1.23,3-2.24,6.08-3.18,9.17-.28.91-1.18,2.88.43,2.96Z"/>
                <path class="cls-3" d="M55.1,59.32c1.12-.02,3.43-1.91,4.39-2.45,6.24-3.53,12.42-7.16,18.31-11.24,2.56-1.77,5.25-3.93,6.02-6.88-.18-.58-.46-1.11-.89-1.53-.99-.98-2.55-1.18-3.9-.83-1.34.35-2.52,1.17-3.63,2-7.81,5.84-14.12,13.38-20.29,20.93Z"/>
              </g>
            </g>
          </g>
        </g>
      </g>
    </g>
  </g>
</svg>