<?xml version="1.0" encoding="UTF-8"?>
<svg xmlns="http://www.w3.org/2000/svg" viewBox="0 0 116.58 129.15">
  <defs>
    <style>
      .cls-1 {
        fill: #f8b229;
      }

      .cls-2 {
        fill: #ea493d;
      }

      .cls-3 {
        isolation: isolate;
      }

      .cls-4 {
        fill: #aa170c;
      }

      .cls-5 {
        fill: #e0867c;
        mix-blend-mode: multiply;
      }
    </style>
  </defs>
  <g class="cls-3">
    <g id="Layer_2" data-name="Layer 2">
      <g id="OBJECTS">
        <g>
          <g>
            <g>
              <path class="cls-2" d="M62.12,54.67v74.48l-52.54-6.92c-.16-24.4-.86-47.97-4.04-67.67l-.26-4.41,56.85,4.53Z"/>
              <path class="cls-4" d="M112.01,50.14c-1.85,22.27-1.67,45.99,0,70.76l-49.9,8.24V54.67l49.9-4.53Z"/>
            </g>
            <polygon class="cls-5" points="112.01 50.14 112.01 55.52 62.12 61.07 5.53 54.55 5.27 50.14 62.12 54.67 112.01 50.14"/>
            <g>
              <polygon class="cls-2" points="0 30.53 60.65 24.05 116.58 30.53 60.06 40.54 0 30.53"/>
              <g>
                <path class="cls-2" d="M115.4,51.72l-53.29,5.59L1.77,51.72c.24-7.1-.35-14.16-1.77-21.19l61.44,6.18,55.13-6.18c-1.43,7.04-1.81,14.11-1.17,21.19Z"/>
                <path class="cls-4" d="M115.4,51.72l-53.29,5.59-.67-20.61,55.13-6.18c-1.43,7.04-1.81,14.11-1.17,21.19Z"/>
              </g>
            </g>
          </g>
          <g>
            <g>
              <g>
                <polygon class="cls-1" points="28.56 33.4 37.85 34.34 39.38 126.15 32.08 125.19 28.56 33.4"/>
                <polygon class="cls-1" points="28.56 33.4 82.57 26.59 90.95 27.56 37.85 34.34 28.56 33.4"/>
              </g>
              <g>
                <polygon class="cls-1" points="83.93 34.19 83.93 125.54 91.71 124.26 93.45 33.12 83.93 34.19"/>
                <polygon class="cls-1" points="93.45 33.12 37.72 26.59 28.56 27.48 83.93 34.19 93.45 33.12"/>
              </g>
            </g>
            <g>
              <g>
                <path class="cls-2" d="M60,29.66s-.04,0-.07,0c-1.09.22-3.74-1.13-4.78-1.44-6.8-2.1-13.57-4.31-20.14-7.02-2.86-1.17-5.92-2.7-7.3-5.39-.12-.22-.22-.46-.31-.7-1.13-3.04.36-6.67,3.01-8.52,2.66-1.86,6.22-2.1,9.33-1.19,3.11.91,5.83,2.84,8.2,5.06,2.58,2.4,4.8,5.13,6.8,8.02,1.83,2.65,3.47,5.42,5.04,8.22.46.83,1.75,2.54.21,2.97Z"/>
                <path class="cls-4" d="M59.93,29.67c-1.09.22-3.74-1.13-4.78-1.44-6.8-2.1-13.57-4.31-20.14-7.02-2.86-1.17-5.92-2.7-7.3-5.39.05-.6.21-1.17.54-1.68.75-1.17,2.22-1.69,3.61-1.64,1.38.06,2.7.6,3.95,1.17,8.81,4.01,16.53,9.99,24.12,16Z"/>
              </g>
              <g>
                <path class="cls-2" d="M61.36,29.65s.05.01.08.01c1.3.27,4.47-1.35,5.72-1.73,8.14-2.51,16.24-5.16,24.11-8.4,3.42-1.41,7.09-3.23,8.74-6.45.14-.26.27-.55.37-.84,1.35-3.64-.43-7.99-3.61-10.2-3.18-2.22-7.45-2.51-11.17-1.43-3.72,1.08-6.98,3.4-9.82,6.05-3.09,2.87-5.75,6.14-8.14,9.6-2.19,3.17-4.15,6.49-6.03,9.84-.55.99-2.1,3.04-.25,3.55Z"/>
                <path class="cls-4" d="M61.44,29.67c1.3.27,4.47-1.35,5.72-1.73,8.14-2.51,16.24-5.16,24.11-8.4,3.42-1.41,7.09-3.23,8.74-6.45-.06-.71-.25-1.41-.65-2.01-.9-1.39-2.66-2.02-4.32-1.96-1.65.07-3.23.71-4.73,1.39-10.55,4.79-19.79,11.95-28.87,19.16Z"/>
              </g>
            </g>
          </g>
        </g>
      </g>
    </g>
  </g>
</svg>