<?xml version="1.0" encoding="UTF-8"?>
<svg xmlns="http://www.w3.org/2000/svg" viewBox="0 0 136.79 144.75">
  <defs>
    <style>
      .cls-1 {
        fill: #f8b229;
      }

      .cls-2 {
        fill: #35a562;
      }

      .cls-3 {
        fill: #ea493d;
      }

      .cls-4 {
        isolation: isolate;
      }

      .cls-5 {
        fill: #aa170c;
      }

      .cls-6 {
        fill: #287f4b;
      }

      .cls-7 {
        fill: #8bd8aa;
        mix-blend-mode: multiply;
      }

      .cls-8 {
        fill: #094722;
      }
    </style>
  </defs>
  <g class="cls-4">
    <g id="Layer_2" data-name="Layer 2">
      <g id="OBJECTS">
        <g>
          <g>
            <g>
              <g>
                <g>
                  <path class="cls-6" d="M130.22,59.65c-.05,3.46-.18,6.85-.34,10.15-.04.78-.08,1.55-.14,2.32-.08,1.55-.19,3.08-.3,4.57-.19,2.67-.42,5.27-.68,7.79-.18,1.79-.36,3.53-.57,5.24-.25,2.11-.51,4.17-.79,6.16-.28,2.08-.59,4.09-.89,6.05-.31,1.93-.63,3.8-.96,5.61-.32,1.83-.65,3.57-.99,5.26-.54,2.73-1.08,5.27-1.61,7.58-.33,1.5-.66,2.91-.99,4.22-1.92,7.89-3.43,12.33-3.43,12.33-3.74,1.33-8.65,2.51-13.85,3.52-2.38.46-4.81.88-7.22,1.27h0c-12.12,1.97-23.59,3.03-23.59,3.03,0,0-.89-2.72-2.04-7.28-.3-1.21-.62-2.55-.95-4-.07-.32-.15-.65-.22-.99-.53-2.39-1.06-5.07-1.55-7.96-.23-1.33-.45-2.7-.65-4.11-.43-2.99-.79-6.16-1.05-9.43-.11-1.42-.21-2.87-.27-4.33-.03-.54-.05-1.09-.07-1.63-.09-2.62-.1-5.14-.05-7.55.02-1.45.07-2.87.13-4.24.16-3.3.43-6.33.74-9.05.12-1.21.27-2.36.43-3.44.03-.21.06-.42.08-.61,1.02-6.95,2.18-11.02,2.18-11.02l59.63-9.44Z"/>
                  <g>
                    <path class="cls-8" d="M129.75,72.12c-.08,1.55-.19,3.08-.3,4.57-2.01-.35-3.36-1.86-4.57-3.72-.46-.71-.96-1.57-1.71-1.94-.13-.06-.28-.11-.43-.15-.81-.17-1.75.21-2.6.7-.25.16-.5.32-.74.48-2.81,1.89-5.05,4.81-8.09,6.13-2.67,1.15-4.93.61-6.92-.77-1.02-.71-1.91-1.66-2.92-2.42-.52-.38-1.07-.73-1.68-.95-1.87-.68-3.83.73-5.58,2.28-.44.38-.85.77-1.25,1.14-2.54,2.35-5.33,4.7-8.37,4.92-1.5.1-2.77-.49-3.81-1.41-.65-.57-1.19-1.31-1.86-1.86-.03-.02-.05-.04-.08-.06-.1-.08-.21-.17-.32-.24-1.41-.92-3.29-.28-4.53,1.21-.5.6-.88,1.34-1.1,2.16-.19.73-.58,1.26-1.05,1.57-.49.35-1.07.47-1.56.36-.02,0-.04,0-.06-.01-.74-.19-1.25-.88-.94-2.08.11-.45.26-.88.44-1.31.08-.24.19-.48.29-.71.08-.17.17-.34.26-.51,1.37-2.64,3.71-4.72,6.32-5.24,1.61-.32,3.09-.04,4.32.75,1.13.74,1.88,1.98,3,2.73.24.16.49.27.75.32.73.18,1.51-.01,2.3-.42,1.6-.8,3.23-2.44,4.47-3.57,2.49-2.31,5.3-4.49,8.27-4.48,2.3.02,4.05,1.46,5.66,2.84.59.5,1.21,1.07,1.9,1.51.88.55,1.88.86,3.05.49.89-.29,1.76-.86,2.58-1.53.55-.45,1.09-.92,1.61-1.39,1.28-1.14,2.52-2.26,3.92-3.19,2.73-1.81,5.77-2.39,7.89-.57.75.64,1.32,1.51,1.87,2.36.09.15.18.28.27.42.37.57.78,1.19,1.32,1.59Z"/>
                    <path class="cls-8" d="M128.77,84.48c-.18,1.79-.36,3.53-.57,5.24-1.35-.63-2.38-1.87-3.32-3.31-.54-.83-1.13-1.88-2.14-2.09-1.06-.22-2.31.48-3.34,1.17-2.81,1.89-5.05,4.81-8.09,6.12-2.67,1.15-4.93.61-6.92-.76-1.55-1.07-2.81-2.71-4.6-3.37-2.34-.85-4.81,1.54-6.83,3.42-2.54,2.34-5.33,4.7-8.37,4.91-1.5.11-2.77-.48-3.81-1.4-.68-.59-1.24-1.36-1.93-1.93-.1-.08-.22-.17-.33-.24-1.98-1.3-4.88.5-5.63,3.37-.19.74-.59,1.27-1.06,1.58-.47.33-1.01.46-1.48.38-.02,0-.04-.01-.07-.02-.77-.16-1.31-.86-1-2.09.18-.7.43-1.37.73-2.02.07-.17.16-.33.25-.49,1.37-2.65,3.71-4.74,6.33-5.27,1.61-.31,3.09-.03,4.32.76,1.13.73,1.88,1.98,3,2.73,2.29,1.53,5.44-1.78,7.51-3.67,2.49-2.31,5.3-4.5,8.27-4.48,2.3.02,4.05,1.45,5.66,2.84,1.34,1.14,2.87,2.66,4.96,1.99,1.51-.49,2.91-1.78,4.19-2.92,1.28-1.14,2.52-2.26,3.92-3.19,2.73-1.82,5.77-2.39,7.89-.57.87.75,1.5,1.79,2.14,2.77.11.17.23.34.34.52Z"/>
                    <path class="cls-8" d="M127.41,95.88c-.28,2.08-.59,4.09-.89,6.05-.59-.59-1.13-1.31-1.64-2.1-.54-.82-1.13-1.87-2.14-2.08-1.06-.23-2.31.47-3.34,1.16-2.81,1.89-5.05,4.82-8.09,6.13-2.67,1.15-4.93.61-6.92-.76-1.55-1.07-2.81-2.71-4.6-3.37-2.34-.85-4.81,1.54-6.83,3.41-2.54,2.35-5.33,4.71-8.37,4.92-1.5.11-2.77-.49-3.81-1.4-.68-.59-1.24-1.37-1.94-1.93-.1-.08-.21-.17-.32-.24-1.98-1.3-4.88.49-5.63,3.37-.19.75-.6,1.28-1.08,1.59-.28.2-.59.32-.9.36-.2.03-.41.03-.59-.01-.78-.15-1.35-.85-1.03-2.09.18-.7.43-1.37.73-2.03.19-.41.39-.8.63-1.17,1.4-2.33,3.55-4.09,5.94-4.57,1.61-.32,3.09-.04,4.32.76,1.13.73,1.88,1.98,3,2.73,2.29,1.53,5.44-1.78,7.51-3.68,2.49-2.3,5.3-4.49,8.27-4.47,2.3.01,4.05,1.45,5.66,2.84,1.34,1.14,2.87,2.66,4.96,1.99,1.51-.49,2.91-1.78,4.19-2.92,1.28-1.14,2.52-2.26,3.92-3.19,2.73-1.82,5.77-2.39,7.89-.57.43.36.79.79,1.12,1.26Z"/>
                    <path class="cls-8" d="M125.56,107.54c-.32,1.83-.65,3.57-.99,5.26-.47-.72-1.02-1.44-1.84-1.62-1.06-.22-2.31.48-3.34,1.17-2.81,1.89-5.05,4.82-8.09,6.13-2.67,1.15-4.93.61-6.92-.76-1.55-1.08-2.81-2.71-4.6-3.37-2.34-.85-4.81,1.54-6.83,3.41-2.54,2.35-5.33,4.71-8.37,4.92-1.5.1-2.77-.49-3.81-1.4-.68-.6-1.24-1.37-1.94-1.93-.1-.08-.21-.17-.32-.24-1.98-1.3-4.88.49-5.63,3.37-.19.74-.59,1.26-1.06,1.58-.01.01-.02.02-.04.02-.48.32-1.02.44-1.49.34-.78-.16-1.34-.85-1.02-2.09.18-.7.43-1.37.73-2.03.36-.79.81-1.53,1.33-2.2,1.38-1.81,3.23-3.14,5.25-3.54,1.61-.32,3.09-.04,4.32.76,1.13.73,1.88,1.97,3,2.72,2.29,1.54,5.44-1.78,7.51-3.67,2.49-2.3,5.3-4.49,8.27-4.47,2.3.01,4.05,1.45,5.66,2.83,1.34,1.15,2.87,2.67,4.96,1.99,1.51-.48,2.91-1.78,4.19-2.92,1.28-1.14,2.52-2.27,3.92-3.18,2.43-1.62,5.1-2.24,7.16-1.09Z"/>
                    <path class="cls-8" d="M122.96,120.38c-.33,1.5-.66,2.91-.99,4.22-.86.11-1.79.65-2.58,1.18-2.81,1.89-5.05,4.82-8.09,6.13-2.67,1.15-4.93.61-6.92-.77-1.55-1.07-2.81-2.7-4.6-3.37-2.34-.84-4.81,1.55-6.83,3.42-2.54,2.35-5.33,4.7-8.37,4.92-1.5.1-2.77-.49-3.81-1.41-.68-.59-1.24-1.37-1.94-1.92-.1-.08-.21-.17-.32-.24-1.98-1.3-4.88.49-5.63,3.37,0,.01-.01.02-.01.03-.19.71-.57,1.22-1.02,1.53,0,.01-.01.01-.02.01-.49.35-1.07.47-1.56.36-.77-.16-1.31-.86-1-2.09.18-.7.43-1.37.73-2.02.2-.44.43-.85.69-1.26.47-.77,1.02-1.48,1.63-2.08,1.23-1.23,2.7-2.1,4.26-2.41,1.61-.32,3.09-.04,4.32.75,1.13.74,1.88,1.98,3,2.73,2.29,1.53,5.44-1.78,7.51-3.67,2.49-2.31,5.3-4.49,8.27-4.48,2.3.02,4.05,1.47,5.66,2.84,1.34,1.14,2.87,2.67,4.96,1.99,1.51-.49,2.91-1.78,4.19-2.92s2.52-2.26,3.92-3.19c1.5-.99,3.08-1.62,4.56-1.67Z"/>
                  </g>
                </g>
                <g>
                  <path class="cls-2" d="M73.88,144.75c-8.9-.66-17.51-1.53-25.72-2.64h-.01c-2.7-.36-5.35-.75-7.97-1.17-7.37-1.16-14.39-2.55-21.03-4.18-.45-1.79-.87-3.57-1.29-5.36-.34-1.41-.67-2.83-.99-4.25-.74-3.25-1.43-6.52-2.1-9.81-.46-2.21-.88-4.44-1.31-6.67-.56-2.98-1.1-5.98-1.6-9h-.01c-.36-2.19-.73-4.38-1.06-6.59-.5-3.14-.96-6.31-1.39-9.48-.22-1.56-.43-3.13-.62-4.7-.41-3.13-.78-6.26-1.12-9.42-.04-.29-.07-.59-.1-.88-.11-1.1-.24-2.2-.34-3.3-.27-2.55-.52-5.1-.75-7.66l64.14,9.44c-.18,3.47-.29,6.95-.34,10.41,0,.16-.01.3-.01.45,0,.25-.01.51-.01.76-.02,1.13-.03,2.26-.03,3.4v.02c-.02,2.98-.01,5.93.04,8.83,0,.15,0,.29.01.43.02,1.4.05,2.78.08,4.16v.03c.07,2.77.18,5.49.29,8.12.01.33.03.66.04,1,.06,1.42.14,2.82.21,4.19.01.03.01.07.01.11.13,2.46.28,4.83.44,7.11.04.58.08,1.15.12,1.71.1,1.47.21,2.89.32,4.25h0c.18,2.28.36,4.38.54,6.34.08.79.16,1.56.23,2.29.1,1.15.22,2.24.32,3.25.04.37.07.75.11,1.1.52,4.87.9,7.71.9,7.71Z"/>
                  <g>
                    <path class="cls-8" d="M70.24,79.95c0,.25-.01.51-.01.76-.02,1.13-.03,2.26-.03,3.4v.02c-.6.09-1.23.12-1.86.08-.15-.01-.29-.02-.44-.04-2.55-.28-4.28-1.63-5.71-3.49-.47-.59-.89-1.24-1.31-1.91-.6-.98-1.26-2.18-2.36-2.65-1.18-.51-2.56-.14-3.7.29-2.39.88-4.43,2.49-6.78,3.4-.69.27-1.39.48-2.15.59-2.44.37-4.56-.34-6.46-1.67-.41-.28-.79-.58-1.17-.91-1.71-1.49-3.11-3.45-5.09-4.58-2.58-1.46-5.31.27-7.54,1.61-.5.3-1.01.6-1.54.88-2.37,1.31-4.95,2.31-7.71,1.83-1.65-.28-3.06-1.22-4.21-2.41-.86-.89-1.55-1.96-2.5-2.76-.61-.51-1.31-.79-2.01-.88-.04-.29-.07-.59-.1-.88-.11-1.1-.24-2.2-.34-3.3.1,0,.22,0,.32.01,1.77.1,3.4.78,4.77,1.89,1.26,1.04,2.08,2.48,3.31,3.53,2.52,2.13,6.03-.34,8.29-1.69,2.76-1.64,5.86-3.1,9.14-2.3,2.55.62,4.48,2.54,6.25,4.33,1.49,1.5,3.17,3.42,5.48,3.3,1.66-.09,3.21-1.01,4.62-1.82,1.41-.8,2.79-1.6,4.33-2.15,3.01-1.1,6.37-.87,8.71,1.51.96.98,1.65,2.18,2.37,3.35.59.96,1.24,2.03,2.32,2.5.43.19.86.29,1.29.34.53.05,1.05.01,1.58-.1.08-.02.17-.04.25-.06Z"/>
                    <path class="cls-8" d="M70.34,97.54s-.04.02-.06.01h-.01c-.62.1-1.27.14-1.92.09-.47-.03-.9-.08-1.31-.19-2.85-.63-4.6-2.73-6.15-5.27-.6-.97-1.26-2.17-2.36-2.65-1.18-.5-2.56-.14-3.7.29-3.09,1.15-5.58,3.49-8.94,4-2.95.45-5.44-.7-7.64-2.59-1.71-1.49-3.11-3.45-5.09-4.58-2.58-1.47-5.31.27-7.54,1.61-2.78,1.68-5.88,3.29-9.25,2.71-1.65-.28-3.06-1.22-4.21-2.41-.86-.89-1.55-1.97-2.5-2.76-.08-.07-.17-.14-.26-.2-.22-1.56-.43-3.13-.62-4.7,1.29.28,2.48.87,3.52,1.72,1.26,1.03,2.08,2.48,3.31,3.52,2.52,2.14,6.03-.33,8.29-1.68,2.76-1.64,5.86-3.1,9.14-2.3,2.55.62,4.48,2.52,6.25,4.33,1.49,1.5,3.17,3.42,5.48,3.3,1.66-.09,3.21-1.02,4.62-1.82,1.41-.81,2.79-1.6,4.33-2.16,3.01-1.09,6.37-.86,8.71,1.52.96.98,1.65,2.18,2.37,3.34.59.96,1.24,2.04,2.32,2.5.01.01.03.01.04.02.94.39,1.89.43,2.83.23.09-.02.18-.04.26-.06.02,1.4.05,2.78.08,4.16Z"/>
                    <path class="cls-8" d="M70.88,110.88c-.2.04-.38.08-.58.1-.63.1-1.29.14-1.95.09-.32-.02-.62-.05-.91-.1-3.08-.54-4.92-2.7-6.55-5.35-.6-.97-1.26-2.17-2.36-2.65-1.18-.5-2.56-.14-3.7.29-3.09,1.15-5.58,3.49-8.94,3.99-2.95.46-5.44-.69-7.64-2.58-1.71-1.49-3.11-3.46-5.09-4.58-2.58-1.46-5.31.27-7.54,1.61-2.78,1.67-5.88,3.29-9.25,2.71-1.65-.29-3.06-1.22-4.21-2.41-.1-.1-.21-.22-.3-.33h-.01c-.36-2.19-.73-4.38-1.06-6.59.53.27,1.03.6,1.51.99,1.26,1.03,2.08,2.48,3.31,3.52,2.52,2.13,6.03-.34,8.29-1.69,2.76-1.64,5.86-3.09,9.14-2.29,2.55.62,4.48,2.52,6.25,4.32,1.49,1.51,3.17,3.43,5.48,3.3,1.66-.08,3.21-1.01,4.62-1.81,1.41-.81,2.79-1.6,4.33-2.16,3.01-1.09,6.37-.86,8.71,1.52.96.98,1.65,2.18,2.37,3.34.59.96,1.24,2.03,2.32,2.5.01,0,.02.01.03.01.94.41,1.89.44,2.84.23.23-.05.46-.11.68-.18.06,1.42.14,2.82.21,4.19Z"/>
                    <path class="cls-8" d="M71.77,124.07c-.49.16-.98.28-1.49.35h-.01c-.37.06-.76.1-1.14.1-.26.01-.52.01-.79-.01-3.64-.23-5.68-2.56-7.46-5.45-.6-.97-1.26-2.17-2.36-2.65-1.18-.5-2.56-.14-3.7.29-3.09,1.15-5.58,3.48-8.94,3.99-2.95.45-5.44-.69-7.64-2.59-1.71-1.48-3.11-3.45-5.09-4.58-2.58-1.45-5.31.28-7.54,1.62-2.78,1.67-5.88,3.29-9.25,2.71-.56-.1-1.1-.27-1.6-.51-.46-2.21-.88-4.44-1.31-6.67.7.8,1.33,1.66,2.15,2.36,2.52,2.13,6.03-.34,8.29-1.69,2.76-1.64,5.86-3.1,9.14-2.29,2.55.62,4.48,2.52,6.25,4.32,1.49,1.51,3.17,3.43,5.48,3.3,1.66-.08,3.21-1.01,4.62-1.82,1.41-.8,2.79-1.59,4.33-2.15,3.01-1.09,6.37-.86,8.71,1.51.96.98,1.65,2.18,2.37,3.35.59.96,1.24,2.03,2.32,2.5.45.2.9.31,1.35.34.51.05,1.02.01,1.52-.1.49-.1.98-.27,1.45-.49.1,1.47.21,2.89.32,4.25Z"/>
                    <path class="cls-8" d="M72.98,137.04c-.37.17-.75.31-1.13.43,0,.01-.01.01-.02.01-.5.17-1.02.29-1.55.36h-.01c-.62.1-1.27.14-1.92.09-3.64-.22-5.68-2.55-7.46-5.44-.6-.98-1.26-2.18-2.36-2.65-1.18-.51-2.56-.14-3.7.29-3.09,1.15-5.58,3.48-8.94,3.99-2.95.45-5.44-.69-7.64-2.59-1.71-1.49-3.11-3.45-5.09-4.58-2.58-1.46-5.31.27-7.54,1.61-2.37,1.43-4.97,2.82-7.76,2.84-.34-1.41-.67-2.83-.99-4.25,2.34.7,5.12-1.24,7.03-2.38,2.76-1.64,5.86-3.1,9.14-2.3,2.55.62,4.48,2.53,6.25,4.33,1.49,1.5,3.17,3.42,5.48,3.3,1.66-.09,3.21-1.01,4.62-1.82,1.41-.8,2.79-1.6,4.33-2.15,3.01-1.1,6.37-.87,8.71,1.51.96.98,1.65,2.18,2.37,3.35.59.96,1.24,2.03,2.32,2.5.95.42,1.91.45,2.87.24.3-.06.61-.16.9-.27.56-.2,1.11-.48,1.64-.78.1,1.15.22,2.24.32,3.25.04.37.07.75.11,1.1Z"/>
                  </g>
                </g>
              </g>
              <path class="cls-7" d="M130.22,59.65c-.05,3.46-.18,6.85-.34,10.15l-1.72.31-5,.91-3.02.55s-.01,0-.01.01l-7.25,1.32h-.01s-5.62,1.04-5.62,1.04h-.01l-5.77,1.05-7.26,1.33-7.26,1.33-2.29.42h-.01l-5.74,1.05-.1.02-4.83.88-3.74.69h-.01c-.18,0-.35.01-.52.01-.46,0-.91.01-1.37.01-2.09.02-4.14,0-6.14-.05-4.99-.11-9.71-.43-14.15-.87-3-.3-5.88-.66-8.61-1.08-5.75-.85-10.88-1.9-15.35-3-7.54-1.85-13.16-3.8-16.53-5.11-.11-1.1-.24-2.2-.34-3.3-.27-2.55-.52-5.1-.75-7.66l64.14,9.44,59.63-9.44Z"/>
            </g>
            <g>
              <path class="cls-2" d="M136.62,44.97l-30.34,8.09-8.81,2.35-27.11,7.23-27.37-6.87-9.11-2.3L0,44.97c11.2-.77,22.06-1.89,32.45-3.47h0c3.49-.54,6.92-1.12,10.31-1.78h.01c9.28-1.77,18.12-3.99,26.41-6.76,0,0,8.37,2.6,26.9,5.98h.01c3.24.59,6.78,1.21,10.65,1.83,8.42,1.37,18.35,2.79,29.89,4.2Z"/>
              <path class="cls-2" d="M3.22,66.18C.9,59.1-.02,52.03,0,44.97l69.17,10.6,1.16,19.81s-45.45-1.11-67.12-9.21Z"/>
              <path class="cls-6" d="M69.18,55.58l67.45-10.6s.96,12.86-1.66,19.54l-64.62,10.88-1.16-19.81Z"/>
            </g>
          </g>
          <g>
            <g>
              <path class="cls-1" d="M106.73,40.77l-27.7,4.65h-.01l-9.38,1.58h-.01l-26.88,4.52c-1.39,28.66.71,59,5.4,90.59h-.01c-2.7-.36-5.35-.75-7.97-1.17-4.3-31.14-6.61-61.46-6.52-90.81l25.83-4.63h.01l9.35-1.67,27.23-4.88h.01c3.24.59,6.78,1.21,10.65,1.83Z"/>
              <path class="cls-1" d="M106.35,49.73s1.63,61.29-1.65,90.72c-2.38.46-4.81.88-7.22,1.27,1.54-29.64,1.49-59.85,0-90.59l-27.83-4.12h-.01l-10.14-1.51h-.01l-27.03-4h0c3.49-.54,6.92-1.12,10.31-1.78h.01l26.08,4.1,10.18,1.6h.01l27.31,4.3Z"/>
            </g>
            <g>
              <g>
                <path class="cls-3" d="M69.22,41.78c-.45-.99-.96-1.95-1.27-2.78-2.02-5.24-3.65-10.65-6.09-15.85-1.58-3.38-3.48-6.76-6.39-8.92-1.64-1.21-3.66-1.93-5.61-1.93-1.53,0-3.02.45-4.24,1.46-1.42,1.17-2.26,2.94-2.58,4.87.12-.11.25-.23.38-.33,1.18-.97,2.6-1.42,4.09-1.45,1.98-.03,4.05.7,5.72,1.93,2.9,2.14,4.81,5.49,6.39,8.83,1.68,3.56,2.98,7.22,4.29,10.85.59,1.63,1.18,3.24,1.8,4.85.09.25.21.51.33.78.03.02.05.04.08.05.51.33,4.15,3.25,4.13,1.14,0-1.1-.47-2.31-1.02-3.49Z"/>
                <path class="cls-5" d="M66.03,44.07c-1.89-1.26-3.84-2.44-5.78-3.64-3.69-2.28-7.47-4.74-10.67-7.76-2.57-2.42-5.03-5.24-6.14-8.76-.53-1.69-.68-3.55-.4-5.3.12-.11.25-.23.38-.33,1.18-.97,2.6-1.42,4.09-1.45-.34,1.79-.2,3.73.34,5.47,1.1,3.53,3.54,6.36,6.11,8.8,2.98,2.83,6.48,5.16,9.94,7.34.59,1.63,1.18,3.24,1.8,4.85.09.25.21.51.33.78Z"/>
              </g>
              <g>
                <path class="cls-3" d="M68.42,45.74c1.33,2,2.89-3.08,3.16-3.72.01-.03.03-.07.04-.1-.05-.34-.11-.65-.19-.95-.43-1.92-.91-3.82-1.4-5.74-1.09-4.27-2.2-8.58-2.9-13.03-.64-4.18-1-8.6.38-12.5.79-2.24,2.28-4.26,4.17-5.51,1.42-.93,3.06-1.42,4.79-1.24.19.02.38.04.57.08-1.53-1.63-3.46-2.78-5.56-2.99-1.8-.18-3.5.34-4.95,1.33-1.84,1.25-3.29,3.24-4.07,5.45-1.36,3.94-.98,8.38-.31,12.6,1.03,6.51,2.95,12.68,4.41,18.93.24.99.38,2.22.58,3.45.24,1.46.58,2.9,1.27,3.94Z"/>
                <path class="cls-5" d="M71.61,41.92c.97-2.4,2.06-4.76,3.12-7.14,2.02-4.52,4.02-9.27,5.11-14.18.88-3.95,1.4-8.21.21-12.26-.57-1.95-1.63-3.82-3.01-5.31-.19-.03-.38-.06-.57-.08-1.73-.17-3.37.32-4.79,1.24,1.47,1.49,2.58,3.43,3.18,5.43,1.21,4.06.72,8.32-.15,12.28-1,4.6-2.81,9.05-4.69,13.33.48,1.92.96,3.82,1.4,5.74.07.3.13.62.19.95Z"/>
              </g>
              <g>
                <path class="cls-3" d="M68.77,45.16c-.03,2.41,4.12-.92,4.7-1.3.03-.02.06-.04.09-.06.15-.31.27-.61.38-.89.72-1.83,1.39-3.67,2.07-5.53,1.5-4.15,3-8.33,4.93-12.41,1.82-3.82,4.01-7.67,7.34-10.12,1.91-1.41,4.28-2.24,6.55-2.21,1.7.03,3.33.55,4.66,1.67.15.12.29.25.43.38-.35-2.21-1.3-4.25-2.92-5.6-1.39-1.16-3.09-1.68-4.85-1.68-2.23,0-4.55.83-6.43,2.23-3.34,2.49-5.52,6.37-7.34,10.25-2.81,5.96-4.69,12.14-7,18.13-.36.95-.94,2.05-1.46,3.18-.62,1.34-1.16,2.72-1.16,3.97Z"/>
                <path class="cls-5" d="M73.56,43.8c2.15-1.44,4.38-2.78,6.6-4.15,4.21-2.6,8.53-5.41,12.2-8.86,2.95-2.77,5.78-6,7.07-10.03.62-1.93.8-4.07.5-6.08-.14-.13-.28-.26-.43-.38-1.34-1.12-2.97-1.63-4.66-1.67.37,2.06.2,4.28-.42,6.28-1.28,4.04-4.08,7.28-7.03,10.08-3.41,3.24-7.41,5.9-11.37,8.39-.68,1.86-1.35,3.7-2.07,5.53-.11.29-.24.59-.38.89Z"/>
              </g>
            </g>
          </g>
        </g>
      </g>
    </g>
  </g>
</svg>