<?xml version="1.0" encoding="UTF-8"?>
<svg xmlns="http://www.w3.org/2000/svg" viewBox="0 0 113.51 138.26">
  <defs>
    <style>
      .cls-1 {
        fill: #63adb7;
      }

      .cls-2 {
        fill: #f8b229;
      }

      .cls-3 {
        fill: #ea493d;
      }

      .cls-4 {
        isolation: isolate;
      }

      .cls-5 {
        fill: #aa170c;
      }

      .cls-6 {
        fill: #448b91;
      }

      .cls-7 {
        fill: #accce2;
        mix-blend-mode: multiply;
      }
    </style>
  </defs>
  <g class="cls-4">
    <g id="Layer_2" data-name="Layer 2">
      <g id="OBJECTS">
        <g>
          <g>
            <g>
              <g>
                <path class="cls-1" d="M104.23,57.33c-4.65,32.62-6.57,72.31-6.57,72.31,0,1.84-1.98,3.53-5.64,4.92h0c-2.52.97-5.85,1.79-9.87,2.41-5.31.82-11.82,1.29-19.31,1.29-7.94,0-15.85-.53-22.67-1.44-.82-.1-1.62-.22-2.4-.34-4.14-.63-7.78-1.41-10.65-2.31-4.26-1.31-6.84-2.87-6.84-4.53-1.65-26.72-5.85-49.41-8.56-61.92-1.43-6.63-2.45-10.39-2.45-10.39h94.96Z"/>
                <g>
                  <path class="cls-6" d="M15.36,73.27c-.07-.06-.11-.15-.11-.25,0-.76.18-1.55.45-2.36.09-.26-.17-.51-.43-.41-.95.35-1.79.75-2.5,1.22-.07.05-.16.06-.24.04.34,1.65.69,3.44,1.06,5.33.15-.26.31-.51.49-.73.05-.06.11-.1.18-.12.75-.2,1.65-.21,2.62-.13.28.02.46-.29.3-.52-.56-.79-1.16-1.49-1.81-2.08Z"/>
                  <path class="cls-6" d="M23.31,108.83c.12.1.19.24.19.39,0,1.12-.21,2.29-.52,3.5-.11.42.33.76.71.57,1.42-.71,2.7-1.42,3.68-2.15.21-.16.49-.12.68.07.65.69,1.66,1.35,2.84,2,.39.22.85-.15.72-.58-.44-1.5-.74-2.91-.75-4.17,0-.12.03-.23.1-.32.69-.94,1.76-1.8,2.99-2.62.35-.23.27-.78-.13-.9-1.41-.4-2.78-.67-4.11-.75-.14,0-.27-.07-.36-.19-.71-.91-1.25-2-1.7-3.22-.14-.4-.68-.44-.9-.08-.79,1.3-1.42,2.58-1.8,3.81-.05.16-.18.29-.35.34-1.23.33-2.49.48-3.79.46-.42,0-.68.45-.44.79.85,1.15,1.83,2.16,2.93,3.05Z"/>
                  <path class="cls-6" d="M92.53,84.69c1.16-1.2,2.84-2.2,4.73-3.13.54-.26.54-1.05-.01-1.29-1.92-.85-3.81-1.49-5.67-1.87-.2-.04-.37-.16-.48-.34-.82-1.42-1.38-3.08-1.77-4.89-.13-.59-.88-.75-1.26-.29-1.37,1.69-2.51,3.37-3.3,5.03-.11.22-.31.38-.56.41-1.8.22-3.62.19-5.44-.09-.59-.09-1.06.51-.77,1.03.97,1.79,2.16,3.41,3.55,4.88.15.16.23.37.19.59-.23,1.58-.74,3.2-1.42,4.85-.23.57.31,1.14.9.95,2.14-.72,4.09-1.48,5.63-2.33.33-.18.72-.07.94.24.79,1.1,2.09,2.24,3.63,3.39.51.38,1.23-.05,1.14-.68-.33-2.2-.48-4.27-.24-6.04.02-.16.09-.31.21-.43Z"/>
                  <path class="cls-6" d="M96.63,107.74c-.09.06-.21.08-.32.03-.77-.34-1.49-.78-2.15-1.32-.21-.17-.54-.05-.55.23-.04.94.05,1.87.26,2.78.02.1,0,.2-.06.28-.46.57-1.05,1.1-1.71,1.6-.23.17-.15.53.13.59,1.02.22,1.98.38,2.79.4.18,0,.3.14.32.32.05.62.3,1.38.64,2.21.11.27.5.27.61,0,.39-.95.82-1.81,1.33-2.46.05-.06.11-.1.18-.12.2-.05.41-.09.62-.12.12-1.78.26-3.66.41-5.63,0,0,0,0-.01,0-.95.35-1.79.75-2.5,1.22Z"/>
                  <path class="cls-6" d="M88.44,129.95c-.07-.15-.08-.31-.05-.48.36-1.63,1.27-3.36,2.41-5.14.32-.51-.09-1.18-.68-1.1-2.08.28-4.02.72-5.81,1.36-.19.07-.4.06-.58-.04-1.44-.79-2.79-1.91-4.06-3.25-.41-.44-1.14-.18-1.22.41-.29,2.16-.38,4.18-.19,6.01.03.25-.07.49-.26.64-1.42,1.13-2.99,2.05-4.69,2.76-.55.23-.64.98-.12,1.28,1.76,1.02,3.62,1.79,5.58,2.31.21.06.39.2.47.4.29.68.53,1.4.73,2.15,1.69-.22,3.28-.47,4.75-.75.25-.37.48-.74.68-1.09.19-.33.58-.44.93-.29.57.24,1.25.43,1.99.58,1.21-.31,2.3-.65,3.29-1.01-1.34-1.62-2.47-3.22-3.16-4.78Z"/>
                  <path class="cls-6" d="M63.38,138.26c-.79-1.17-1.44-2.31-1.82-3.39-.04-.11-.04-.22,0-.33.36-1.11,1.1-2.27,2-3.44.26-.33.01-.83-.41-.81-1.47.06-2.85.25-4.14.59-.14.04-.28.02-.4-.06-.96-.64-1.83-1.5-2.63-2.52-.26-.33-.79-.2-.88.21-.34,1.49-.53,2.89-.5,4.18,0,.17-.08.33-.22.43-1.06.7-2.21,1.24-3.45,1.64-.4.13-.51.65-.17.89,1.17.82,2.42,1.47,3.75,1.96.14.05.26.16.31.31.02.06.03.12.05.17,2.63.11,5.3.17,7.97.17.18,0,.36,0,.54,0Z"/>
                  <path class="cls-6" d="M33.36,123.4c-.23.17-.15.53.13.59,1.02.22,1.98.38,2.79.4.18,0,.3.14.32.32.05.62.3,1.38.64,2.21.11.27.5.27.61,0,.39-.95.82-1.81,1.33-2.46.05-.06.11-.1.18-.12.75-.2,1.65-.21,2.62-.13.28.02.46-.29.3-.52-.56-.79-1.16-1.49-1.81-2.08-.07-.06-.11-.15-.11-.25,0-.76.18-1.55.45-2.36.09-.26-.17-.51-.43-.41-.95.35-1.79.75-2.5,1.22-.09.06-.21.08-.32.03-.77-.34-1.49-.78-2.15-1.32-.21-.17-.54-.05-.55.23-.04.94.05,1.87.26,2.78.02.1,0,.2-.06.28-.46.57-1.05,1.1-1.71,1.6Z"/>
                  <path class="cls-6" d="M43.58,88.33c-1.43-1.71-2.63-3.39-3.36-5.03-.07-.15-.08-.31-.05-.48.36-1.63,1.27-3.36,2.41-5.14.32-.51-.09-1.18-.68-1.1-2.08.28-4.02.72-5.81,1.36-.19.07-.4.06-.58-.04-1.44-.79-2.79-1.91-4.06-3.25-.41-.44-1.14-.18-1.22.41-.29,2.16-.38,4.18-.19,6.01.03.25-.07.49-.26.64-1.42,1.13-2.99,2.05-4.69,2.76-.55.23-.64.98-.12,1.28,1.76,1.02,3.62,1.79,5.58,2.31.21.06.39.2.47.4.63,1.47,1.04,3.12,1.32,4.88.1.61.86.81,1.26.34,1.45-1.73,2.72-3.4,3.59-4.92.19-.33.58-.44.93-.29,1.24.53,2.95.82,4.86,1,.64.06,1.03-.69.62-1.17Z"/>
                  <path class="cls-6" d="M47.29,110.31c-.23.17-.15.53.13.59,1.02.22,1.98.38,2.79.4.18,0,.3.14.32.32.05.62.3,1.38.64,2.21.11.27.5.27.61,0,.39-.95.82-1.81,1.33-2.46.05-.06.11-.1.18-.12.75-.2,1.65-.21,2.62-.13.28.02.46-.29.3-.52-.56-.79-1.16-1.49-1.81-2.08-.07-.06-.11-.15-.11-.25,0-.76.18-1.55.45-2.36.09-.26-.17-.51-.43-.41-.95.35-1.79.75-2.5,1.22-.09.06-.21.08-.32.03-.77-.34-1.49-.78-2.15-1.32-.21-.17-.54-.05-.55.23-.04.94.05,1.87.26,2.78.02.1,0,.2-.06.28-.46.57-1.05,1.1-1.71,1.6Z"/>
                  <path class="cls-6" d="M68.75,112.3c.14.05.26.16.31.31.35,1.06.53,2.24.62,3.49.03.43.55.62.86.32,1.12-1.12,2.11-2.2,2.81-3.21.15-.22.43-.27.67-.14.84.45,2.01.75,3.33,1,.44.08.76-.41.5-.78-.89-1.28-1.62-2.53-2.03-3.72-.04-.11-.04-.22,0-.33.36-1.11,1.1-2.27,2-3.44.26-.33.01-.83-.41-.81-1.47.06-2.85.25-4.14.59-.14.04-.28.02-.4-.06-.96-.64-1.82-1.5-2.63-2.52-.26-.33-.79-.2-.88.21-.34,1.49-.53,2.89-.5,4.18,0,.17-.08.33-.22.43-1.06.7-2.21,1.24-3.45,1.64-.4.13-.51.65-.17.89,1.17.82,2.42,1.47,3.75,1.96Z"/>
                  <path class="cls-6" d="M59.8,94.38c.26-.04.49.12.57.38.26.91.86,1.96,1.61,3.08.25.37.83.25.91-.18.3-1.53.68-2.93,1.25-4.05.05-.1.13-.18.24-.24,1.05-.52,2.39-.79,3.86-.96.42-.05.6-.57.29-.86-1.07-1.01-2.17-1.87-3.31-2.56-.12-.07-.21-.19-.24-.33-.21-1.13-.2-2.36-.03-3.64.05-.42-.41-.7-.77-.48-1.3.8-2.44,1.64-3.35,2.56-.12.12-.29.18-.46.14-1.24-.27-2.43-.72-3.58-1.33-.37-.2-.82.09-.75.5.22,1.41.63,2.76,1.21,4.05.06.14.06.3,0,.44-.52.99-1.23,1.94-2.07,2.87-.29.32-.06.83.37.83,1.58.02,3.05-.03,4.26-.23Z"/>
                </g>
              </g>
              <path class="cls-7" d="M104.23,57.33c-4.65,32.62-6.57,72.31-6.57,72.31,0,1.84-1.98,3.53-5.64,4.92h0c-2.52.97-5.85,1.79-9.87,2.41-5.31.82-11.82,1.29-19.31,1.29-7.94,0-15.85-.53-22.67-1.44,4.15-.36,8.25-.96,12.27-2.02,8.12-2.12,15.99-6.3,21-13.04,5.11-6.9,6.78-15.78,7.09-24.36.3-8.59-.61-17.19-.01-25.77-22.92,4.2-46.4,2.46-68.79-3.92-1.43-6.63-2.45-10.39-2.45-10.39h94.96Z"/>
            </g>
            <g>
              <path class="cls-6" d="M.18,47c3.51,5.92,6.11,11.67,7.62,17.22,33.36,6.85,66.63,6.8,99.82,0,.73-6.02,2.7-11.75,5.7-17.22H.18Z"/>
              <path class="cls-1" d="M113.51,46.21c0,2.28-4.48,4.37-12,6.04-3.61.8-7.91,1.5-12.76,2.07-9.11,1.07-20.14,1.7-32,1.7-10.19,0-19.76-.47-28.03-1.28-5.44-.53-10.33-1.22-14.45-2.03-8.88-1.72-14.27-4.01-14.27-6.5s5.04-4.61,13.4-6.33c2.89-.59,6.18-1.12,9.81-1.58,9.39-1.19,21-1.9,33.54-1.9,10.2,0,19.78.47,28.06,1.28h.02c5.38.54,10.21,1.22,14.31,2.02,8.95,1.74,14.37,4.02,14.37,6.51Z"/>
            </g>
          </g>
          <g>
            <g>
              <path class="cls-2" d="M99.14,39.69l-30.94,6.61h-.01l-10.05,2.15-29.42,6.29s.19.9.51,2.59c1.84,9.57,8.03,44.28,8.54,79.15-4.14-.63-7.78-1.41-10.65-2.31-.48-10.3-2.83-49.07-11.57-76.84-.49-1.56-1-3.08-1.53-4.56l.25-.05,31.29-6.67h.01l9.61-2.05h.01l29.62-6.32h.02c5.38.54,10.21,1.22,14.31,2.02Z"/>
              <path class="cls-2" d="M101.51,52.23h0c-.45,1.65-.87,3.35-1.28,5.09-6.5,27.84-7.94,67.05-8.21,77.24h0c-2.52.97-5.85,1.79-9.87,2.41-1.09-27.31,4.5-68.29,6.14-79.65.29-1.93.46-3.01.46-3.01l-30.61-5.86-12.57-2.41h-.01l-32.16-6.16c2.89-.59,6.18-1.12,9.81-1.58l31.97,5.69h.01l13,2.31h.01l33.31,5.93Z"/>
            </g>
            <g>
              <g>
                <g>
                  <path class="cls-3" d="M59.26,41.83c-.55-1.2-1.16-2.37-1.55-3.39-2.45-6.38-4.44-12.96-7.41-19.29-1.92-4.11-4.23-8.22-7.77-10.86-1.99-1.47-4.45-2.35-6.82-2.35-1.87,0-3.68.55-5.16,1.78-1.73,1.43-2.75,3.58-3.14,5.93.15-.14.3-.28.46-.41,1.43-1.18,3.17-1.73,4.97-1.76,2.41-.03,4.93.85,6.96,2.34,3.53,2.6,5.85,6.69,7.77,10.74,2.05,4.33,3.63,8.79,5.22,13.21.72,1.98,1.43,3.94,2.19,5.9.11.31.25.62.41.95.03.02.06.04.09.07.62.4,5.05,3.96,5.02,1.39,0-1.33-.57-2.81-1.24-4.24Z"/>
                  <path class="cls-5" d="M55.38,44.62c-2.3-1.53-4.67-2.96-7.03-4.43-4.49-2.78-9.09-5.77-12.98-9.44-3.13-2.95-6.12-6.38-7.47-10.66-.65-2.05-.83-4.32-.49-6.45.15-.14.3-.28.46-.41,1.43-1.18,3.17-1.73,4.97-1.76-.41,2.18-.24,4.54.41,6.66,1.34,4.29,4.31,7.73,7.44,10.71,3.63,3.45,7.88,6.29,12.1,8.93.72,1.98,1.43,3.94,2.19,5.9.11.31.25.62.41.95Z"/>
                </g>
                <g>
                  <path class="cls-3" d="M58.72,45.95c-.03,2.93,5.01-1.12,5.72-1.58.04-.02.07-.05.11-.07.18-.37.33-.74.47-1.09.88-2.23,1.69-4.47,2.52-6.73,1.83-5.05,3.65-10.14,6-15.1,2.21-4.65,4.88-9.34,8.93-12.32,2.33-1.72,5.21-2.73,7.97-2.69,2.06.04,4.05.67,5.68,2.03.18.15.36.31.52.47-.42-2.69-1.58-5.17-3.55-6.81-1.69-1.41-3.76-2.05-5.9-2.05-2.71,0-5.54,1.01-7.82,2.71-4.06,3.03-6.72,7.76-8.93,12.47-3.42,7.25-5.7,14.78-8.52,22.07-.44,1.16-1.14,2.5-1.77,3.87-.76,1.63-1.41,3.32-1.42,4.83Z"/>
                  <path class="cls-5" d="M64.55,44.29c2.62-1.75,5.33-3.38,8.03-5.05,5.13-3.17,10.39-6.59,14.85-10.78,3.59-3.37,7.03-7.3,8.6-12.2.76-2.35.98-4.96.61-7.4-.17-.16-.34-.32-.52-.47-1.63-1.36-3.61-1.99-5.68-2.03.46,2.51.25,5.21-.51,7.64-1.56,4.92-4.97,8.86-8.55,12.26-4.15,3.94-9.02,7.18-13.84,10.2-.82,2.26-1.64,4.5-2.52,6.73-.13.35-.29.71-.47,1.09Z"/>
                </g>
              </g>
              <path class="cls-3" d="M56.55,44.9c-6.03,2.9-12.03,6.2-16.59,11.09s-7.55,11.66-6.49,18.27c1.9-2.06,4.27-3.9,6.64-5.39.94,1.92,2.3,3.5,3.92,4.89-1.43-5.53-.3-11.57,2.54-16.52,2.84-4.95,7.67-8.72,13.16-10.28-.89-1.03-2.02-1.34-3.17-2.06Z"/>
              <path class="cls-3" d="M62.7,44.9c6.03,2.9,12.03,6.2,16.59,11.09s7.55,11.66,6.49,18.27c-1.9-2.06-4.27-3.9-6.64-5.39-.94,1.92-2.3,3.5-3.92,4.89,1.43-5.53.3-11.57-2.54-16.52-2.84-4.95-7.67-8.72-13.16-10.28.89-1.03,2.02-1.34,3.17-2.06Z"/>
            </g>
          </g>
        </g>
      </g>
    </g>
  </g>
</svg>