<?xml version="1.0" encoding="UTF-8"?>
<svg xmlns="http://www.w3.org/2000/svg" viewBox="0 0 93.24 137.25">
  <defs>
    <style>
      .cls-1 {
        fill: #63adb7;
      }

      .cls-2 {
        fill: #ffebcc;
      }

      .cls-3 {
        fill: #f8b229;
      }

      .cls-4 {
        fill: #ea493d;
      }

      .cls-5 {
        isolation: isolate;
      }

      .cls-6 {
        fill: #aa170c;
      }

      .cls-7 {
        fill: #448b91;
      }

      .cls-8 {
        fill: #e0867c;
        mix-blend-mode: multiply;
      }
    </style>
  </defs>
  <g class="cls-5">
    <g id="Layer_2" data-name="Layer 2">
      <g id="OBJECTS">
        <g>
          <g>
            <g>
              <g>
                <g>
                  <path class="cls-6" d="M93.24,128.89c-5.29-.03-10.08.25-14.64.82-3.47.44-6.82,1.04-10.15,1.79-6.3,1.41-12.57,3.37-19.64,5.76,0,0,0-.03-.01-.08-.39-1.92-7.55-31.38-4.29-65.77.38-3.98.9-7.96,1.59-11.85l20.43-4.77,9.69-2.26,6.56-1.54c.63,3.13,1.24,6.15,1.81,9.09,5.03,25.71,7.74,38.81,8.65,68.83Z"/>
                  <path class="cls-4" d="M48.81,137.25c-5.5-1.86-11.04-3.45-16.66-4.74-4.31-.99-8.68-1.79-13.08-2.38-6.25-.85-12.61-1.29-19.06-1.25.89-29.07,3.46-41.89,8.19-66.43.71-3.69,1.46-7.5,2.28-11.49l10.01,2.41,10.77,2.59,14.86,3.57c-.39,3.73-.66,7.65-.84,11.65-1.42,32.01,3.28,63.92,3.54,65.98.01.05.01.08.01.08Z"/>
                </g>
                <g>
                  <path class="cls-2" d="M29.85,104.11c2.81,0,4.29-2.23,4.29-4.43s-1.47-4.42-4.29-4.42c-1.32,0-2.43.48-3.22,1.4-.69.8-1.07,1.88-1.07,3.03,0,2.2,1.47,4.42,4.29,4.42ZM29.85,96.04c2.41,0,3.51,1.89,3.51,3.64,0,.96-.31,1.86-.88,2.52-.63.74-1.54,1.13-2.63,1.13s-2-.39-2.63-1.12c-.57-.66-.88-1.56-.88-2.52,0-1.76,1.1-3.65,3.51-3.65Z"/>
                  <path class="cls-2" d="M85.72,85.15c-.69.8-1.07,1.88-1.07,3.03,0,2.2,1.47,4.42,4.29,4.42.53,0,1-.1,1.44-.25-.04-.26-.07-.52-.11-.78-.39.15-.83.25-1.33.25-2.41,0-3.51-1.89-3.51-3.64,0-.96.31-1.86.88-2.52.63-.74,1.54-1.13,2.63-1.13.09,0,.16.02.24.02-.04-.26-.09-.53-.13-.79-.04,0-.07-.01-.11-.01-1.32,0-2.43.48-3.22,1.4Z"/>
                  <path class="cls-2" d="M37.87,90.52c4.06,0,6.18-3.21,6.18-6.39s-1.93-6.38-6.18-6.38-6.18,3.21-6.18,6.39,1.93,6.38,6.18,6.38ZM37.87,78.53c1.67,0,3.07.6,4.05,1.74.87,1.02,1.35,2.39,1.35,3.87,0,2.7-1.69,5.61-5.4,5.61-1.67,0-3.07-.6-4.05-1.74-.87-1.02-1.35-2.39-1.35-3.87,0-2.7,1.69-5.61,5.4-5.61Z"/>
                  <path class="cls-2" d="M63.76,132.64s0-.09,0-.13c0-3.07-1.93-6.38-6.18-6.38s-6.18,3.21-6.18,6.39c0,1.22.31,2.48.95,3.55.26-.09.52-.17.78-.26-.61-.94-.95-2.08-.95-3.3,0-2.7,1.69-5.61,5.4-5.61,1.67,0,3.07.6,4.05,1.74.87,1.02,1.35,2.39,1.35,3.87,0,.12,0,.23-.01.35.26-.07.53-.15.79-.21Z"/>
                  <path class="cls-2" d="M85.87,77.05c.7,0,1.35-.1,1.93-.28-.05-.25-.09-.51-.14-.76-.54.17-1.13.26-1.79.26-1.67,0-3.07-.6-4.05-1.74-.87-1.02-1.35-2.39-1.35-3.87,0-2.63,1.6-5.44,5.1-5.59-.05-.26-.1-.51-.15-.77-3.76.23-5.72,3.31-5.72,6.37s1.93,6.38,6.18,6.38Z"/>
                  <path class="cls-2" d="M92.68,116.06c-1.05.51-2.29.81-3.74.81-5.57,0-8.1-4.35-8.1-8.39s2.53-8.4,8.1-8.4c.9,0,1.71.12,2.45.33-.03-.28-.06-.55-.09-.83-.74-.18-1.53-.28-2.36-.28-6.1,0-8.88,4.76-8.88,9.18s2.78,9.17,8.88,9.17c1.45,0,2.71-.28,3.79-.75-.02-.28-.03-.57-.05-.85Z"/>
                  <path class="cls-2" d="M39.33,134.35c.4-.89.6-1.87.6-2.85,0-1.66-.55-3.22-1.54-4.37-1.13-1.31-2.73-2.01-4.64-2.01-4.06,0-6.18,3.21-6.18,6.39,0,.02,0,.03,0,.05.26.05.53.1.79.15,0-.07-.02-.14-.02-.21,0-2.7,1.69-5.61,5.4-5.61,1.67,0,3.07.6,4.05,1.74.87,1.02,1.35,2.39,1.35,3.87,0,.9-.19,1.82-.58,2.65.25.07.5.14.76.2Z"/>
                  <path class="cls-2" d="M11.61,67.46c0-1.15-.38-2.22-1.07-3.03-.63-.73-1.48-1.17-2.47-1.32-.05.26-.1.51-.15.77,1.99.29,2.91,1.98,2.91,3.58,0,1.76-1.1,3.65-3.51,3.65-.28,0-.53-.03-.78-.08-.05.26-.1.51-.14.76.29.06.59.09.92.09,2.81,0,4.29-2.23,4.29-4.43Z"/>
                  <path class="cls-2" d="M11.22,124.06c-2.81,0-4.29,2.23-4.29,4.43,0,.19.03.38.05.57.26.01.52.02.78.04-.03-.2-.05-.4-.05-.61,0-1.76,1.1-3.65,3.51-3.65s3.51,1.89,3.51,3.64c0,.39-.06.76-.16,1.12.26.03.51.06.77.09.1-.4.17-.8.17-1.21,0-2.2-1.47-4.42-4.29-4.42Z"/>
                  <path class="cls-2" d="M42.64,108.08c-4.06,0-6.18,3.21-6.18,6.39s1.93,6.38,6.18,6.38,6.18-3.21,6.18-6.39-1.93-6.38-6.18-6.38ZM42.64,120.07c-1.67,0-3.07-.6-4.05-1.74-.87-1.02-1.35-2.39-1.35-3.87,0-2.7,1.69-5.61,5.4-5.61,1.67,0,3.07.6,4.05,1.74.87,1.02,1.35,2.39,1.35,3.87,0,2.7-1.69,5.61-5.4,5.61Z"/>
                  <path class="cls-2" d="M9.03,90.52c3.8,0,5.78-3.01,5.78-5.98s-1.81-5.97-5.78-5.97c-1.84,0-3.25.71-4.22,1.77-.12.65-.23,1.3-.34,1.95.68-1.64,2.17-2.94,4.56-2.94,3.44,0,5,2.69,5,5.19,0,1.37-.45,2.64-1.26,3.59-.9,1.05-2.2,1.61-3.75,1.61-3.3,0-4.87-2.48-4.99-4.89-.12.71-.23,1.41-.34,2.11.75,1.96,2.48,3.56,5.34,3.56Z"/>
                  <path class="cls-2" d="M14.22,108.47c0-4.42-2.78-9.17-8.88-9.17-1.29,0-2.42.22-3.42.6-.03.29-.07.59-.1.89,1-.45,2.17-.71,3.52-.71,5.57,0,8.1,4.35,8.1,8.39,0,2.21-.72,4.27-2.03,5.79-1.47,1.71-3.57,2.61-6.07,2.61-1.83,0-3.44-.48-4.74-1.41-.02.31-.04.61-.06.92,1.28.79,2.87,1.26,4.8,1.26,6.1,0,8.88-4.76,8.88-9.18Z"/>
                  <path class="cls-2" d="M50.28,97.73c0,3.07,1.93,6.38,6.18,6.38s6.18-3.21,6.18-6.39-1.93-6.38-6.18-6.38-6.18,3.21-6.18,6.39ZM56.46,92.12c1.67,0,3.07.6,4.05,1.74.87,1.02,1.35,2.39,1.35,3.87,0,2.7-1.69,5.61-5.4,5.61-1.67,0-3.07-.6-4.05-1.74-.87-1.02-1.35-2.39-1.35-3.87,0-2.7,1.69-5.61,5.4-5.61Z"/>
                  <path class="cls-2" d="M61.48,122.93c2.81,0,4.29-2.23,4.29-4.43s-1.47-4.42-4.29-4.42c-1.32,0-2.43.48-3.22,1.4-.69.8-1.07,1.88-1.07,3.03,0,2.2,1.47,4.42,4.29,4.42ZM61.48,114.86c2.41,0,3.51,1.89,3.51,3.64,0,.96-.31,1.86-.88,2.52-.63.74-1.54,1.13-2.63,1.13-2.41,0-3.51-1.89-3.51-3.64s1.1-3.65,3.51-3.65Z"/>
                  <path class="cls-2" d="M63.77,78.14c0-2.2-1.47-4.42-4.29-4.42-1.32,0-2.43.48-3.22,1.4-.69.8-1.07,1.88-1.07,3.03,0,2.2,1.47,4.42,4.29,4.42s4.29-2.23,4.29-4.43ZM55.97,78.14c0-1.76,1.1-3.65,3.51-3.65s3.51,1.89,3.51,3.64c0,.96-.31,1.86-.88,2.52-.63.74-1.54,1.13-2.63,1.13s-2-.39-2.63-1.12c-.57-.66-.88-1.56-.88-2.52Z"/>
                </g>
              </g>
              <path class="cls-8" d="M84.58,60.06c-12.07,4.51-25.24,7.67-39.26,9.8-13.63-1.26-26.06-3.68-37.13-7.4.71-3.69,1.46-7.5,2.28-11.49l35.64,8.57,36.68-8.57c.63,3.13,1.24,6.15,1.81,9.09Z"/>
            </g>
            <g>
              <path class="cls-4" d="M89.99,30.39l-6.75,7.39-7.62,1.87-9.9,2.44-19.63,4.82-14.04-3.77-10.29-2.76-13.9-3.73L0,30.39s7.34-.56,17.04-2.25c3.41-.59,7.1-1.33,10.87-2.23,7.2-1.72,14.67-4.05,20.9-7.17,0,0,4.12,3.46,14.09,6.69,3.45,1.11,7.61,2.2,12.53,3.12,4.26.78,9.1,1.43,14.57,1.85Z"/>
              <path class="cls-4" d="M89.99,30.39s-3.42,14.07-3.62,23.24c0,0-10.55,5.74-40.63,9.8,0,0-26.91-.63-40.77-6.39,0,0,.32-14.07-4.98-26.65,0,0,24.24,8.74,47.35,10.23,0,0,26.44-2.34,42.65-10.23Z"/>
              <path class="cls-6" d="M89.99,30.39s-3.42,14.07-3.62,23.24c0,0-10.55,5.74-40.63,9.8l1.6-22.81s26.44-2.34,42.65-10.23Z"/>
            </g>
          </g>
          <g>
            <g>
              <path class="cls-3" d="M31.24,55.97c-1.18,21.3-2.45,51.57.9,76.55-4.31-.99-8.68-1.79-13.08-2.38-.44-12.31-1.39-43.1,1.4-76.75.37-4.42.8-8.77,1.31-13.01.15-1.23.3-2.44.46-3.65,0,0,31.69-5.5,40.66-11.3,3.45,1.11,7.61,2.2,12.53,3.12,0,0-19.63,6.79-43.03,10.24,0,0-.14,1.57-.33,4.35-.22,3-.51,7.43-.82,12.83Z"/>
              <path class="cls-3" d="M78.6,129.71c-3.47.44-6.82,1.04-10.15,1.79,0,0-.01-40.79-1.92-76.72-.24-4.44-.51-8.7-.8-12.69-.1-1.42-.22-2.82-.33-4.17,0,0-29.11-1.74-48.35-9.79,3.41-.59,7.1-1.33,10.87-2.23,0,0,19.86,6.4,47.52,9.7,0,0,.07,1.45.2,4.04.15,2.97.35,7.43.59,12.86,1.05,23.47,2.73,58.84,2.38,77.2Z"/>
            </g>
            <g>
              <path class="cls-1" d="M45.72,33.64c.7,2.12-.03,4.49-1.24,6.36-1.21,1.88-2.88,3.41-4.33,5.11-3.94,4.64-6.22,10.66-6.35,16.75-1.09-1.51-1.92-3.07-2.35-4.89-2.2,1.07-4.1,2.63-5.5,4.64.98-6.44,4.42-12.36,9.37-16.6,1.91-1.63,4.05-3.01,5.73-4.88,1.68-1.87,2.86-4.42,2.31-6.87.72-.07,1.67.16,2.36.38Z"/>
              <path class="cls-1" d="M46.99,34.22c7.68,8.13,11.64,19.64,10.58,30.77,1.37-1.19,2.82-2.39,3.97-3.8.86,1.51,1.83,2.94,2.69,4.46.06-6.23-1.24-12.4-4.02-17.98-2.78-5.58-6.89-10.49-11.9-14.2-.37.34-.95.41-1.32.76Z"/>
              <g>
                <path class="cls-1" d="M47.53,33.8c-.09.67-.39,1.05-.81,1.24-1.09.47-3.05-.32-4.54-.55-2.45-.41-4.89-.89-7.31-1.46-5.01-1.19-9.93-2.74-14.72-4.64-1.93-.76-3.99-1.74-5.03-3.48-.13-.2-.24-.41-.33-.62-1.21-2.89.8-6.13,3.14-8.22,2.33-2.1,5.18-3.87,6.4-6.76.68-1.61.76-3.4,1.21-5.1.44-1.69,1.4-3.43,3.05-4,1.46-.51,3.14.06,4.32,1.08,1.19,1.01,1.97,2.39,2.71,3.77,2.51,4.65,4.78,9.44,6.8,14.33.94,2.29,1.82,4.58,2.65,6.91.65,1.84,2.71,5.56,2.46,7.52Z"/>
                <path class="cls-7" d="M46.72,35.03c-1.09.47-3.05-.32-4.54-.55-2.45-.41-4.89-.89-7.31-1.46-5.01-1.19-9.93-2.74-14.72-4.64-1.93-.76-3.99-1.74-5.03-3.48.33-1.24,1.25-2.35,2.4-2.94,1.63-.85,3.61-.82,5.38-.32,1.77.5,3.38,1.44,4.98,2.37,6.28,3.68,12.56,7.35,18.84,11.02Z"/>
              </g>
              <g>
                <path class="cls-1" d="M46.08,34.03c.07.54.31.85.66,1,.88.38,2.47-.26,3.68-.45,1.99-.33,3.96-.72,5.92-1.19,4.06-.96,8.05-2.22,11.92-3.76,1.56-.62,3.23-1.41,4.07-2.82.1-.16.19-.33.26-.5.98-2.34-.65-4.96-2.54-6.66-1.88-1.7-4.19-3.13-5.19-5.47-.55-1.31-.62-2.76-.98-4.13-.35-1.37-1.13-2.78-2.47-3.24-1.19-.42-2.54.05-3.5.87-.96.82-1.59,1.94-2.2,3.05-2.04,3.77-3.87,7.65-5.51,11.6-.76,1.85-1.47,3.71-2.15,5.59-.53,1.49-2.2,4.5-2,6.09Z"/>
                <path class="cls-7" d="M46.74,35.03c.88.38,2.47-.26,3.68-.45,1.99-.33,3.96-.72,5.92-1.19,4.06-.96,8.05-2.22,11.92-3.76,1.56-.62,3.23-1.41,4.07-2.82-.26-1-1.01-1.9-1.95-2.38-1.32-.69-2.93-.67-4.36-.26s-2.74,1.17-4.03,1.92c-5.09,2.98-10.17,5.95-15.26,8.93Z"/>
              </g>
            </g>
          </g>
        </g>
      </g>
    </g>
  </g>
</svg>